<svg id="Layer_1" data-name="Layer 1" xmlns="http://www.w3.org/2000/svg" viewBox="0 0 400 242"><defs><style>.cls-1{fill:#fff;}.cls-2{fill:#f90;fill-rule:evenodd;}</style></defs><path class="cls-1" d="M113.15,88a37.32,37.32,0,0,0,1.51,11.81,62.1,62.1,0,0,0,4.28,9.5,6.1,6.1,0,0,1,.93,3c0,1.38-.85,2.7-2.55,3.93L109,121.8a6.65,6.65,0,0,1-3.47,1.16,5.55,5.55,0,0,1-3.94-1.85A30.58,30.58,0,0,1,96.82,115c-1.31-2.24-2.66-4.82-4-7.76q-15.52,18.3-38.91,18.3-16.68,0-26.4-9.5T17.73,90.53q0-16.89,12-27.21T62.2,53a98.38,98.38,0,0,1,14,1q7.29,1,15.17,2.89V47.23q0-15.06-6.25-21.2T63.59,19.9a61.91,61.91,0,0,0-14.25,1.73A102.44,102.44,0,0,0,35.1,26.15a35.58,35.58,0,0,1-4.63,1.74,9.49,9.49,0,0,1-2.09.34q-2.77,0-2.78-4.16V17.58A8.63,8.63,0,0,1,26.53,13a9.53,9.53,0,0,1,3.71-2.78,86.3,86.3,0,0,1,16.67-6A81,81,0,0,1,67.52,1.6q23.63,0,34.63,10.77t11,32.54ZM59.42,108.14a42.34,42.34,0,0,0,13.66-2.44,28.81,28.81,0,0,0,12.51-8.45,21.07,21.07,0,0,0,4.52-8.45,45.25,45.25,0,0,0,1.27-11.47V71.77a115.35,115.35,0,0,0-12.16-2.19,98.35,98.35,0,0,0-12.39-.82q-13.2,0-19.69,5.33T40.66,89.38q0,9.25,4.86,14T59.42,108.14Zm106.3,14.36a8.22,8.22,0,0,1-5.09-1.28Q159,120,157.85,116l-31-102.37a23.6,23.6,0,0,1-1.15-5.32c0-2.16,1.07-3.25,3.24-3.25h13c2.47,0,4.2.43,5.21,1.28s1.89,2.59,2.66,5.21L172,99.1l20.61-87.54q.91-3.93,2.55-5.21t5.32-1.28h10.66q3.7,0,5.32,1.28T219,11.56l20.85,88.7,22.92-88.7q1.15-3.93,2.67-5.21t5.21-1.28h12.27c2.16,0,3.25,1.09,3.25,3.25a10.3,10.3,0,0,1-.24,2.08,28.12,28.12,0,0,1-.92,3.24L253,116c-.78,2.63-1.7,4.37-2.78,5.21a8.24,8.24,0,0,1-5.1,1.28H233.81c-2.47,0-4.24-.47-5.32-1.39s-1.94-2.7-2.55-5.33L205.33,30.55,185,115.78c-.62,2.63-1.47,4.4-2.55,5.33s-2.86,1.39-5.33,1.39Zm170,3.47a89.33,89.33,0,0,1-20.38-2.32q-10-2.31-15.29-5.32c-2.16-1.24-3.51-2.47-4.05-3.71a9.16,9.16,0,0,1-.81-3.7V104.2q0-4.17,3-4.17a7.33,7.33,0,0,1,2.43.46c.85.32,2,.78,3.36,1.39a70,70,0,0,0,14.59,4.64,78,78,0,0,0,15.75,1.62q12.51,0,19.34-4.4a14,14,0,0,0,6.83-12.51A12.78,12.78,0,0,0,356.91,82q-3.6-3.7-13.32-7l-19.22-6q-14.6-4.64-21.19-13.44a31.33,31.33,0,0,1-6.6-19.22,29.39,29.39,0,0,1,3.59-14.71,35.65,35.65,0,0,1,9.49-10.88,41.85,41.85,0,0,1,13.78-6.83A58.62,58.62,0,0,1,340.12,1.6a71.4,71.4,0,0,1,8.92.58q4.51.58,8.56,1.5c2.7.62,5.22,1.32,7.53,2.09a33.55,33.55,0,0,1,5.56,2.31,12.85,12.85,0,0,1,3.94,3.25,7.43,7.43,0,0,1,1.16,4.4V22q0,4.17-3,4.17a14,14,0,0,1-5.09-1.62,61.51,61.51,0,0,0-25.48-5.1q-11.34,0-17.6,3.71T318.35,35a12.54,12.54,0,0,0,3.94,9.38q3.93,3.83,14.59,7.3l18.76,6Q370,62.29,376.13,70.39a29.88,29.88,0,0,1,6.14,18.52,33.6,33.6,0,0,1-3.47,15.41A35.15,35.15,0,0,1,369.18,116a43.09,43.09,0,0,1-14.7,7.41A65.61,65.61,0,0,1,335.72,126Z"/><path class="cls-2" d="M360.75,191.14C317.18,223.3,254,240.4,199.61,240.4c-76.24,0-144.9-28.18-196.85-75.09-4.08-3.69-.44-8.72,4.46-5.86,56.06,32.61,125.37,52.26,197,52.26A391.88,391.88,0,0,0,354.42,181C361.78,177.84,368,185.82,360.75,191.14Z"/><path class="cls-2" d="M378.88,170.44c-5.57-7.13-36.84-3.38-50.88-1.7-4.26.51-4.92-3.2-1.09-5.9,24.95-17.51,65.82-12.46,70.57-6.59s-1.26,46.89-24.63,66.44c-3.6,3-7,1.41-5.42-2.56C372.69,207,384.46,177.58,378.88,170.44Z"/></svg>