<svg style="width: 100px; height: 100px;" viewBox="0 0 200 200" fill="none" xmlns="http://www.w3.org/2000/svg">
<path d="M67.1485 157.67C61.6833 154.529 56.6964 150.621 52.3396 146.066C51.076 147.651 49.5314 148.989 47.783 150.015C46.8173 150.56 45.7997 151.008 44.7452 151.351C68.3171 177.092 106.515 183.202 136.94 166.1C138.379 165.273 139.266 163.741 139.266 162.082C139.266 160.423 138.379 158.891 136.94 158.065C135.544 157.227 133.807 157.198 132.384 157.989C112.115 169.435 87.3048 169.313 67.1485 157.67Z" fill="white"/>
<path d="M67.1333 43.8158C72.6002 40.6628 78.4933 38.3147 84.6306 36.8442C83.868 34.9094 83.4764 32.8484 83.4763 30.7687C83.4791 29.6467 83.5911 28.5276 83.8104 27.4272C49.7435 34.9918 25.3772 65.028 25 99.9227C25.0054 101.58 25.8934 103.11 27.3304 103.936C28.7675 104.763 30.5359 104.761 31.9716 103.932C33.3812 103.14 34.2656 101.661 34.2955 100.044C34.5438 76.8176 47.0259 55.4445 67.1333 43.8158Z" fill="white"/>
<path d="M165.723 100.743C165.721 107.053 164.81 113.329 163.019 119.379C165.062 119.679 167.03 120.359 168.821 121.384C169.783 121.934 170.693 122.57 171.54 123.283C181.996 89.9971 168.154 53.8941 138.125 36.1304C136.687 35.3769 134.96 35.4286 133.569 36.2667C132.179 37.1047 131.326 38.6077 131.32 40.2313C131.304 41.8447 132.141 43.3468 133.523 44.1803C153.49 56.0274 165.728 77.5261 165.723 100.743Z" fill="white"/>
<path d="M100.017 69.4846C112.661 69.4785 124.063 77.0904 128.906 88.7703C133.749 100.45 131.079 113.897 122.14 122.84C113.202 131.783 99.7557 134.46 88.0735 129.623C76.3912 124.786 68.7737 113.387 68.7737 100.743C68.7905 83.4923 82.7662 69.5097 100.017 69.4846ZM100.017 60.2043C77.628 60.2043 59.4783 78.3541 59.4783 100.743C59.4783 123.132 77.628 141.281 100.017 141.281C122.406 141.281 140.555 123.132 140.555 100.743C140.559 89.9901 136.29 79.6767 128.686 72.0734C121.083 64.47 110.769 60.2003 100.017 60.2043Z" fill="white"/>
<path d="M100.002 41.6286C105.974 41.6286 110.816 36.7869 110.816 30.8143C110.816 24.8417 105.974 20 100.002 20C94.029 20 89.1873 24.8417 89.1873 30.8143C89.1873 36.7869 94.029 41.6286 100.002 41.6286Z" fill="#F58320"/>
<path d="M39.4444 146.506C45.417 146.506 50.2588 141.665 50.2588 135.692C50.2588 129.719 45.417 124.878 39.4444 124.878C33.4719 124.878 28.6301 129.719 28.6301 135.692C28.6301 141.665 33.4719 146.506 39.4444 146.506Z" fill="#F58320"/>
<path d="M160.559 146.506C166.531 146.506 171.373 141.665 171.373 135.692C171.373 129.719 166.531 124.878 160.559 124.878C154.586 124.878 149.744 129.719 149.744 135.692C149.744 141.665 154.586 146.506 160.559 146.506Z" fill="#F58320"/>
<path d="M108.978 93.346C108.984 88.9846 105.849 85.2523 101.552 84.505C97.2552 83.7577 93.0443 86.2124 91.5774 90.3198C90.1106 94.4271 91.8138 98.9941 95.612 101.138L92.7869 115.461C92.6945 115.913 92.8127 116.383 93.1082 116.737C93.4036 117.092 93.8443 117.293 94.3057 117.284H105.804C106.265 117.293 106.706 117.092 107.001 116.737C107.297 116.383 107.415 115.913 107.322 115.461L104.482 101.138C107.273 99.5377 108.989 96.5627 108.978 93.346Z" fill="#F58320"/>
</svg>
